<?xml version="1.0" standalone="no"?>
<!DOCTYPE svg PUBLIC "-//W3C//DTD SVG 20010904//EN"
 "http://www.w3.org/TR/2001/REC-SVG-20010904/DTD/svg10.dtd">
<svg version="1.0" xmlns="http://www.w3.org/2000/svg"
 width="32.000000pt" height="32.000000pt" viewBox="0 0 32.000000 32.000000"
 preserveAspectRatio="xMidYMid meet">

<g transform="translate(0.000000,32.000000) scale(0.100000,-0.100000)"
fill="#000000" stroke="none">
<path d="M0 160 l0 -160 160 0 160 0 0 160 0 160 -160 0 -160 0 0 -160z m196
35 c23 -40 30 -45 61 -45 28 0 34 -3 31 -17 -2 -10 -11 -17 -21 -17 -21 2 -21
1 3 -38 11 -18 20 -35 20 -38 0 -3 -58 -5 -130 -5 -72 0 -130 2 -130 5 0 3 9
16 20 30 24 31 25 48 3 46 -10 0 -18 6 -18 14 0 10 12 16 33 18 27 3 39 11 60
47 15 25 30 45 34 45 4 0 19 -20 34 -45z"/>
<path d="M155 160 c-3 -5 -1 -10 4 -10 6 0 11 5 11 10 0 6 -2 10 -4 10 -3 0
-8 -4 -11 -10z"/>
<path d="M121 105 c-25 -33 -22 -35 43 -35 63 0 66 1 54 19 -13 22 -84 33 -97
16z"/>
</g>
</svg>
