<?xml version="1.0" standalone="no"?>
<!DOCTYPE svg PUBLIC "-//W3C//DTD SVG 20010904//EN"
 "http://www.w3.org/TR/2001/REC-SVG-20010904/DTD/svg10.dtd">
<svg version="1.0" xmlns="http://www.w3.org/2000/svg"
 width="198.000000pt" height="229.000000pt" viewBox="0 0 198.000000 229.000000"
 preserveAspectRatio="xMidYMid meet">

<g transform="translate(0.000000,229.000000) scale(0.100000,-0.100000)"
fill="#000000" stroke="none">
<path d="M973 2219 c22 -11 41 -18 44 -15 5 5 -62 36 -76 36 -3 -1 11 -10 32
-21z"/>
<path d="M1035 2190 c3 -5 13 -10 21 -10 8 0 14 -7 14 -15 0 -9 7 -18 15 -21
30 -12 14 -25 -26 -21 -32 3 -43 0 -52 -14 -7 -11 -17 -19 -24 -19 -7 0 -13
-4 -13 -8 0 -5 -11 -22 -24 -37 -14 -16 -23 -32 -20 -37 3 -4 -2 -11 -10 -14
-9 -3 -16 -11 -16 -17 0 -5 -11 -25 -25 -43 -14 -18 -25 -36 -25 -40 0 -4 -16
-24 -35 -43 -20 -20 -57 -65 -83 -101 -60 -83 -123 -123 -200 -127 -99 -7
-153 45 -162 153 l-5 62 -83 -97 c-94 -109 -115 -143 -160 -256 -69 -176 -77
-220 -77 -445 1 -195 2 -209 28 -295 38 -121 117 -282 117 -236 0 6 7 8 15 4
10 -3 15 0 13 8 -2 8 3 13 10 11 6 -1 12 3 12 9 0 15 26 39 34 32 3 -4 6 1 6
9 0 17 53 45 125 69 22 7 52 21 67 31 14 10 29 18 34 18 4 0 22 12 41 26 19
14 37 23 40 20 3 -3 21 20 39 50 52 87 104 154 119 154 27 0 124 66 158 108
20 23 48 68 64 100 l28 57 5 -45 c11 -94 63 -170 117 -170 29 0 127 -62 165
-104 21 -22 51 -66 68 -96 89 -159 84 -153 131 -157 47 -5 81 -9 89 -12 10 -5
97 -1 145 5 28 4 56 7 63 7 6 0 12 4 12 8 0 7 59 24 73 21 4 -1 7 5 7 13 0 8
6 15 13 15 18 0 53 129 68 249 15 131 1 269 -43 426 -22 79 -86 216 -120 258
l-23 28 0 -73 c0 -92 -21 -127 -76 -128 -72 0 -159 103 -275 327 -38 72 -80
146 -94 165 -44 60 -184 193 -232 221 -50 29 -63 33 -53 17z m101 -107 c-5 -5
-11 -2 -13 5 -3 6 -14 12 -26 13 -21 0 -21 1 -2 9 22 9 55 -14 41 -27z m44
-13 c0 -5 -4 -10 -9 -10 -6 0 -13 5 -16 10 -3 6 1 10 9 10 9 0 16 -4 16 -10z"/>
</g>
</svg>
