<?xml version="1.0" standalone="no"?>
<!DOCTYPE svg PUBLIC "-//W3C//DTD SVG 20010904//EN"
 "http://www.w3.org/TR/2001/REC-SVG-20010904/DTD/svg10.dtd">
<svg version="1.0" xmlns="http://www.w3.org/2000/svg"
 width="295.000000pt" height="285.000000pt" viewBox="0 0 295.000000 285.000000"
 preserveAspectRatio="xMidYMid meet">

<g transform="translate(0.000000,285.000000) scale(0.100000,-0.100000)"
fill="#000000" stroke="none">
<path d="M0 1425 l0 -1425 1475 0 1475 0 0 1425 0 1425 -1475 0 -1475 0 0
-1425z m1168 1213 c8 -8 12 -50 12 -125 0 -104 -2 -113 -21 -124 -18 -9 -25
-7 -42 10 -18 18 -22 36 -25 121 -2 55 -2 107 2 115 7 18 57 20 74 3z m-472
-116 c22 -15 115 -185 112 -206 -4 -25 -49 -34 -67 -13 -22 27 -111 180 -111
192 0 27 41 44 66 27z m925 -2 c11 -6 19 -21 19 -36 0 -25 -79 -173 -104 -193
-13 -11 -73 -5 -62 7 3 2 1 13 -5 23 -8 15 -1 34 32 92 75 130 75 130 120 107z
m-1192 -375 c93 -53 115 -76 106 -104 -10 -34 -52 -24 -144 32 -95 58 -112 77
-92 101 21 25 46 19 130 -29z m864 24 c84 -28 143 -67 213 -142 56 -58 61 -62
100 -59 23 2 66 -5 100 -17 l59 -20 22 26 c12 15 24 34 26 44 4 15 1 16 -20 8
-38 -14 -65 5 -61 44 3 28 13 38 83 80 44 26 91 51 104 54 30 7 55 -7 59 -35
3 -18 8 -20 35 -14 18 4 77 7 132 7 90 0 106 -3 158 -29 82 -42 152 -113 190
-193 27 -59 31 -79 32 -153 0 -47 -2 -98 -5 -114 -5 -27 -2 -30 49 -46 192
-63 293 -279 209 -449 -17 -33 -36 -53 -68 -71 -42 -23 -55 -25 -178 -25 -74
0 -136 3 -138 7 -6 10 -48 0 -52 -12 -3 -7 -9 -7 -19 2 -13 10 -14 8 -11 -12
2 -14 9 -24 15 -23 7 2 17 -7 24 -18 6 -12 7 -19 1 -15 -5 3 -13 -1 -16 -10
-5 -13 -18 -16 -69 -12 -34 2 -75 11 -92 19 -26 12 -29 19 -25 44 6 36 4 142
-2 170 -11 44 -55 142 -72 161 -6 7 -22 26 -36 43 -14 17 -29 31 -33 31 -5 0
-18 11 -28 24 -11 14 -29 26 -42 28 -13 2 -21 9 -19 18 2 8 1 12 -3 8 -4 -4
-19 -2 -34 3 -14 6 -46 13 -71 16 -25 2 -54 6 -65 8 -11 2 -28 4 -37 4 -22 1
-24 21 -3 21 9 0 12 6 9 15 -4 8 -1 15 5 15 6 0 11 -4 11 -8 0 -14 55 -8 68 8
11 13 11 13 7 0 -4 -12 4 -15 36 -17 22 -1 46 -6 53 -12 7 -6 16 -8 19 -4 4 3
7 0 7 -8 0 -11 2 -11 10 1 7 11 10 11 10 2 0 -7 4 -11 9 -8 5 3 14 -1 21 -9 7
-8 18 -15 24 -15 20 0 161 -147 174 -181 2 -5 8 -6 13 -3 6 3 0 14 -11 24 -13
11 -19 24 -14 31 5 8 3 9 -5 5 -8 -5 -11 -3 -10 5 5 22 -87 123 -102 113 -5
-3 -9 2 -9 10 0 9 -7 16 -16 16 -9 0 -12 5 -8 12 5 7 1 9 -13 6 -13 -4 -25 1
-34 13 -7 11 -21 19 -29 19 -9 0 -22 6 -29 13 -11 10 -12 9 -6 -2 5 -9 0 -8
-17 3 -14 9 -28 13 -31 9 -4 -3 -7 0 -7 7 0 7 -3 11 -6 7 -4 -3 -22 0 -40 8
-25 10 -34 11 -35 2 0 -7 -3 -5 -6 3 -9 22 -30 40 -47 40 -19 0 -21 -11 -4
-28 10 -10 10 -15 -2 -22 -11 -7 -11 -10 -2 -10 7 0 10 -5 6 -11 -10 -17 -28
20 -30 61 0 19 -4 44 -7 55 -3 11 -9 35 -12 53 -6 38 -64 157 -71 149 -3 -3 1
-19 10 -35 37 -71 51 -259 27 -350 -11 -40 -13 -42 -51 -42 -21 0 -51 -5 -67
-12 -15 -6 -30 -12 -33 -12 -3 -1 -12 -6 -20 -11 -8 -5 -21 -10 -29 -12 -8 -1
-17 -7 -21 -14 -4 -6 -12 -9 -18 -5 -5 3 -13 -1 -16 -10 -5 -13 -9 -14 -20 -5
-8 6 -39 13 -70 14 -31 1 -56 5 -56 8 0 4 -13 9 -30 11 -16 3 -30 2 -30 -2 0
-9 -49 -5 -57 5 -5 4 -3 5 4 1 6 -3 14 -2 17 3 4 5 -17 7 -49 5 -41 -4 -66 0
-98 15 -41 19 -87 54 -87 65 0 3 -13 18 -28 33 -80 79 -137 278 -107 376 43
145 179 225 383 226 69 1 109 -4 155 -20z m-871 -456 c21 -19 23 -46 6 -61 -8
-6 -54 -8 -126 -3 -96 5 -116 9 -128 25 -12 17 -12 22 3 38 23 26 217 27 245
1z m1341 -228 c134 -28 252 -121 311 -244 27 -59 31 -77 33 -166 l2 -99 34
-12 c104 -36 185 -100 224 -178 50 -98 40 -241 -20 -290 -67 -56 -130 -57
-377 -6 -30 6 -68 14 -85 16 -16 3 -36 7 -44 10 -8 2 -35 7 -60 9 -240 26
-329 33 -425 34 -458 7 -522 10 -566 26 -40 15 -63 22 -80 24 -33 5 -145 122
-170 178 -44 99 -34 178 33 238 67 61 130 80 267 80 l115 0 34 68 c31 61 40
70 90 94 64 30 197 43 251 24 28 -9 36 -8 61 10 16 11 29 26 29 34 0 26 91
106 153 135 70 34 94 36 190 15z m-466 -131 c3 -8 12 -13 19 -10 8 3 14 1 14
-4 0 -14 -22 -12 -42 4 -20 15 -23 26 -8 26 6 0 13 -7 17 -16z m-776 -15 c11
-11 19 -28 17 -37 -4 -19 -163 -112 -192 -112 -23 0 -56 27 -56 46 0 15 177
124 202 124 5 0 17 -9 29 -21z m399 -188 c0 -21 -13 -41 -26 -41 -8 0 -14 10
-14 25 0 18 5 25 20 25 11 0 20 -4 20 -9z"/>
<path d="M1685 1710 c-3 -5 -2 -10 4 -10 5 0 13 5 16 10 3 6 2 10 -4 10 -5 0
-13 -4 -16 -10z"/>
<path d="M2191 1294 c0 -11 3 -14 6 -6 3 7 2 16 -1 19 -3 4 -6 -2 -5 -13z"/>
</g>
</svg>
