<?xml version="1.0" standalone="no"?>
<!DOCTYPE svg PUBLIC "-//W3C//DTD SVG 20010904//EN"
 "http://www.w3.org/TR/2001/REC-SVG-20010904/DTD/svg10.dtd">
<svg version="1.0" xmlns="http://www.w3.org/2000/svg"
 width="32.000000pt" height="32.000000pt" viewBox="0 0 32.000000 32.000000"
 preserveAspectRatio="xMidYMid meet">

<g transform="translate(0.000000,32.000000) scale(0.100000,-0.100000)"
fill="#000000" stroke="none">
<path d="M150 280 c0 -6 -11 -22 -25 -36 -21 -20 -28 -23 -45 -14 -18 10 -22
7 -35 -24 -18 -41 -19 -80 -5 -107 15 -27 25 -24 74 21 l43 40 41 -35 c46 -40
67 -44 82 -16 19 37 9 104 -15 95 -7 -3 -25 11 -41 33 -16 21 -33 41 -39 45
-15 11 -35 10 -35 -2z"/>
</g>
</svg>
