<?xml version="1.0" standalone="no"?>
<!DOCTYPE svg PUBLIC "-//W3C//DTD SVG 20010904//EN"
 "http://www.w3.org/TR/2001/REC-SVG-20010904/DTD/svg10.dtd">
<svg version="1.0" xmlns="http://www.w3.org/2000/svg"
 width="417.000000pt" height="417.000000pt" viewBox="0 0 417.000000 417.000000"
 preserveAspectRatio="xMidYMid meet">

<g transform="translate(0.000000,417.000000) scale(0.100000,-0.100000)"
fill="#000000" stroke="none">
<path d="M2002 3375 c3 -4 21 -14 40 -23 23 -12 32 -23 30 -37 -3 -17 -2 -17
15 -5 15 12 16 12 6 0 -21 -23 -40 -20 -37 6 1 13 -2 24 -8 24 -5 0 -7 -10 -3
-22 6 -22 6 -22 -9 -4 -9 11 -16 16 -16 11 0 -5 7 -16 16 -26 17 -19 10 -44
-9 -32 -8 4 -7 1 1 -9 8 -10 9 -18 3 -22 -6 -4 -7 -14 -4 -23 4 -10 2 -14 -4
-10 -15 10 -10 -17 7 -38 7 -9 9 -15 4 -14 -5 1 -18 1 -29 0 -15 -1 -17 -3 -7
-10 10 -6 7 -13 -15 -30 -15 -13 -22 -20 -16 -16 9 4 11 1 7 -9 -3 -9 -10 -13
-15 -10 -5 3 -9 -2 -9 -11 0 -10 5 -13 12 -9 7 4 8 3 4 -4 -4 -6 -14 -8 -23
-5 -11 4 -14 3 -9 -5 4 -7 3 -12 -2 -12 -6 0 -13 -7 -16 -16 -6 -15 -4 -15 11
-3 10 7 7 1 -7 -15 -14 -15 -23 -29 -20 -31 3 -2 1 -7 -4 -12 -5 -5 -6 -2 -1
6 6 10 4 12 -4 7 -7 -5 -10 -14 -8 -21 4 -8 -3 -11 -18 -9 -17 1 -22 -2 -18
-12 3 -8 1 -14 -5 -14 -5 0 -23 -26 -38 -57 -83 -162 -237 -243 -352 -184 -70
36 -97 89 -90 181 4 62 -2 73 -24 41 -7 -10 -33 -41 -58 -68 -93 -104 -124
-143 -150 -190 -36 -67 -85 -186 -105 -258 -9 -33 -24 -82 -33 -110 -22 -72
-27 -453 -7 -548 39 -178 119 -367 204 -480 24 -32 46 -55 50 -52 3 3 -1 10
-9 15 -10 7 -11 10 -2 10 6 0 12 5 12 11 0 5 -6 7 -12 3 -7 -4 -6 1 3 12 8 10
15 26 14 34 -1 8 10 28 24 43 14 16 22 28 16 27 -23 -5 -25 2 -10 31 16 30 17
31 38 12 22 -18 22 -18 4 3 -9 11 -14 24 -10 27 3 4 -2 17 -13 29 -19 22 -19
22 0 8 11 -8 22 -15 25 -15 3 0 5 -4 3 -10 -2 -5 2 -5 9 2 9 10 10 15 0 27 -8
10 -9 16 -1 21 6 4 9 3 8 -2 -2 -4 2 -9 7 -10 6 -2 11 2 11 7 1 6 2 13 3 16 0
4 9 0 18 -7 15 -12 16 -12 9 6 -6 16 -5 18 5 8 10 -10 10 -16 1 -25 -7 -7 -12
-8 -12 -4 0 5 -7 3 -15 -4 -8 -7 -15 -18 -15 -24 0 -6 5 -3 11 7 10 17 12 17
29 2 12 -11 20 -13 25 -5 3 6 3 9 -2 8 -4 -2 -9 2 -10 7 -2 6 2 10 9 10 7 0
15 11 19 25 6 22 7 23 8 4 1 -12 9 -28 19 -35 15 -12 16 -12 5 1 -14 19 -13
59 2 57 5 -1 9 4 7 11 -1 8 2 11 8 7 8 -5 8 -11 0 -20 -7 -9 -6 -16 5 -25 13
-11 14 -10 9 5 -5 12 -4 16 4 11 6 -3 13 -2 17 4 4 6 11 8 16 4 5 -3 8 -2 7 3
-1 4 3 17 9 28 6 11 10 23 10 27 -1 3 1 9 4 12 9 10 4 -37 -6 -54 -7 -12 -6
-13 7 -3 8 7 17 10 21 7 3 -3 4 9 1 28 -4 27 -2 30 6 16 6 -10 16 -18 23 -18
7 0 6 4 -3 10 -13 9 -13 10 0 10 13 0 13 1 0 10 -13 8 -13 10 1 10 10 0 20 12
24 27 3 15 10 30 14 33 4 3 14 17 22 32 31 58 119 179 119 164 0 -4 18 3 40
14 22 11 40 18 40 16 0 -6 45 32 87 74 44 43 80 99 110 170 l23 55 0 -75 c0
-64 3 -77 20 -88 11 -7 20 -20 20 -30 0 -20 23 -56 37 -58 4 0 15 -3 23 -6 8
-3 41 -13 72 -23 32 -10 65 -26 74 -37 10 -10 21 -18 25 -18 11 0 89 -84 105
-113 34 -61 84 -165 84 -175 0 -7 4 -12 8 -12 7 0 9 -8 15 -64 2 -23 10 -27
32 -15 19 10 40 3 37 -11 -3 -12 -1 -12 9 -3 13 13 42 6 33 -9 -3 -5 3 -4 14
3 17 11 19 16 9 29 -10 12 -8 12 8 -1 11 -9 25 -14 32 -12 10 4 35 -28 30 -39
-1 -2 7 5 17 17 l19 20 -6 -22 c-8 -33 1 -28 18 10 9 19 12 22 9 8 -4 -16 -3
-21 5 -17 6 4 11 1 11 -6 0 -10 2 -10 8 -1 5 8 13 9 22 3 9 -6 20 -4 29 3 12
10 14 9 8 -8 -6 -18 -6 -19 6 -3 10 12 17 14 24 7 12 -12 57 43 45 56 -4 5 -1
5 6 1 7 -4 10 -12 7 -17 -4 -5 -1 -9 5 -9 6 0 9 -4 6 -9 -3 -5 2 -15 12 -22
14 -11 15 -11 5 0 -17 19 35 85 54 69 7 -6 13 -15 13 -21 0 -6 -6 -2 -14 9
-14 18 -14 17 -12 -15 1 -20 9 -36 17 -39 11 -3 12 -2 0 6 -10 7 -10 11 -1 17
9 6 29 43 35 65 0 3 13 43 28 90 38 123 51 217 51 375 -1 190 -26 312 -102
495 -51 122 -163 293 -121 184 17 -45 2 -143 -27 -181 -20 -27 -32 -33 -62
-33 -30 0 -48 9 -90 46 -74 64 -128 145 -220 327 -45 88 -106 192 -137 232
-95 125 -224 231 -327 271 -23 10 -47 20 -53 24 -14 10 -72 23 -63 15z m105
-90 c0 -8 -4 -12 -9 -9 -5 3 -6 10 -3 15 9 13 12 11 12 -6z m-21 -28 c1 -9 -1
-15 -6 -14 -4 1 -9 -2 -10 -8 -1 -5 -8 -17 -16 -26 -8 -9 -12 -18 -9 -21 3 -2
-2 -5 -10 -5 -11 0 -12 4 -4 13 6 7 8 18 5 23 -4 5 2 14 11 20 12 7 13 10 4
11 -11 0 -11 3 -1 15 16 19 32 15 36 -8z m-553 -1710 c4 3 7 4 7 1 0 -3 -8
-12 -18 -21 -17 -15 -18 -15 -18 8 0 17 3 21 11 15 7 -6 15 -7 18 -3z m-116
-42 c0 -8 -4 -12 -9 -9 -5 3 -6 10 -3 15 9 13 12 11 12 -6z m1621 -15 c-7 -11
-14 -17 -17 -15 -2 3 1 11 7 18 7 8 8 18 4 22 -4 5 -1 5 5 1 10 -5 10 -11 1
-26z m-435 -5 c-3 -9 -8 -14 -10 -11 -3 3 -2 9 2 15 9 16 15 13 8 -4z m54 -2
c0 -10 -4 -10 -16 -1 -9 7 -18 13 -20 15 -2 1 5 1 16 0 11 0 20 -7 20 -14z
m30 2 c0 -8 -4 -12 -9 -9 -5 3 -6 10 -3 15 9 13 12 11 12 -6z m242 -29 c-3 -3
-11 5 -18 17 -13 21 -12 21 5 5 10 -10 16 -20 13 -22z m42 12 c-8 -22 -24 -26
-29 -6 -2 9 0 8 8 -2 10 -13 11 -12 7 6 -2 12 1 21 8 21 9 0 11 -7 6 -19z
m-108 -3 c-3 -9 -8 -14 -10 -11 -3 3 -2 9 2 15 9 16 15 13 8 -4z m42 -16 c-3
-4 -13 -5 -22 -2 -11 4 -13 8 -5 11 7 2 9 9 5 15 -4 7 1 6 10 -2 9 -7 14 -17
12 -22z m-1608 -28 c1 -1 -9 -17 -22 -37 -18 -26 -22 -41 -15 -49 7 -8 4 -17
-10 -30 -11 -10 -20 -15 -20 -12 0 17 3 22 10 20 10 -3 7 24 -5 34 -4 4 -5 2
0 -6 6 -10 4 -12 -5 -6 -9 6 -11 4 -5 -5 6 -9 4 -11 -5 -5 -8 5 -11 4 -6 -3 3
-6 2 -13 -4 -17 -5 -3 -8 -21 -5 -38 6 -30 5 -31 -8 -12 -8 10 -12 26 -9 34 3
8 1 12 -5 8 -5 -3 -10 0 -10 8 0 8 5 13 11 12 6 -1 10 4 8 11 -1 6 4 11 10 10
8 -2 12 6 12 20 -1 22 -1 22 17 6 20 -18 27 -6 9 12 -8 8 -5 15 7 25 16 12 17
12 6 -2 -7 -9 -10 -19 -6 -22 11 -12 32 27 22 40 -7 8 -5 10 8 8 10 -2 19 -4
20 -4z m-61 -156 c-3 -17 -16 -32 -17 -19 0 5 -2 20 -5 33 -4 20 -2 22 10 12
8 -7 13 -18 12 -26z"/>
<path d="M2060 3259 c0 -5 5 -7 10 -4 6 3 10 8 10 11 0 2 -4 4 -10 4 -5 0 -10
-5 -10 -11z"/>
<path d="M1460 1491 c0 -6 4 -13 10 -16 6 -3 7 1 4 9 -7 18 -14 21 -14 7z"/>
<path d="M3051 1471 c-6 -10 -7 -22 -3 -26 4 -3 7 -16 7 -27 0 -12 7 -23 15
-25 10 -3 11 -2 4 4 -6 4 -10 16 -8 25 1 10 -2 20 -7 24 -5 3 -5 13 1 25 6 10
8 19 6 19 -3 0 -10 -8 -15 -19z"/>
<path d="M2982 1442 c-11 -25 -11 -25 4 -10 9 9 15 21 13 27 -2 6 -10 -2 -17
-17z"/>
<path d="M2704 1438 l-19 -23 23 19 c21 18 27 26 19 26 -2 0 -12 -10 -23 -22z"/>
<path d="M2746 1445 c4 -8 8 -15 10 -15 2 0 4 7 4 15 0 8 -4 15 -10 15 -5 0
-7 -7 -4 -15z"/>
<path d="M1263 1166 c-9 -11 -8 -17 6 -30 17 -16 71 -33 57 -18 -7 7 -11 8
-37 11 -5 0 -7 6 -3 13 5 7 3 8 -6 3 -9 -5 -10 -2 -5 14 7 24 5 26 -12 7z"/>
</g>
</svg>
