<?xml version="1.0" standalone="no"?>
<!DOCTYPE svg PUBLIC "-//W3C//DTD SVG 20010904//EN"
 "http://www.w3.org/TR/2001/REC-SVG-20010904/DTD/svg10.dtd">
<svg version="1.0" xmlns="http://www.w3.org/2000/svg"
 width="32.000000pt" height="31.000000pt" viewBox="0 0 32.000000 31.000000"
 preserveAspectRatio="xMidYMid meet">

<g transform="translate(0.000000,31.000000) scale(0.100000,-0.100000)"
fill="#000000" stroke="none">
<path d="M160 300 c8 -5 20 -10 25 -10 6 0 3 5 -5 10 -8 5 -19 10 -25 10 -5 0
-3 -5 5 -10z"/>
<path d="M126 268 c-15 -17 -16 -25 -7 -40 8 -13 8 -18 0 -18 -6 0 -13 9 -16
20 -3 11 -10 17 -15 14 -5 -3 -2 -16 7 -30 9 -14 13 -30 10 -37 -4 -7 2 -1 13
13 12 14 19 26 17 29 -2 2 3 11 12 20 9 9 18 11 20 6 2 -6 16 -30 33 -54 22
-34 29 -39 27 -23 -1 12 -5 22 -9 22 -4 0 -8 5 -8 10 0 6 7 10 15 10 18 0 20
16 3 26 -7 5 -8 3 -3 -6 6 -10 4 -12 -9 -7 -10 4 -15 3 -11 -3 3 -6 2 -10 -3
-10 -5 0 -14 11 -20 25 -6 14 -19 25 -27 25 -9 0 -13 5 -10 10 4 6 11 7 17 4
7 -4 8 -2 4 4 -10 17 -19 15 -40 -10z m6 -30 c-7 -7 -12 -8 -12 -2 0 14 12 26
19 19 2 -3 -1 -11 -7 -17z"/>
<path d="M200 250 c-9 -6 -10 -10 -3 -10 6 0 15 5 18 10 8 12 4 12 -15 0z"/>
<path d="M155 160 c-3 -5 -1 -10 4 -10 6 0 11 5 11 10 0 6 -2 10 -4 10 -3 0
-8 -4 -11 -10z"/>
<path d="M23 123 c1 -18 5 -33 10 -33 4 0 7 -5 7 -11 0 -5 -5 -7 -10 -4 -6 4
-10 3 -9 -2 3 -19 -2 -34 -9 -29 -5 3 -9 -1 -9 -9 0 -8 4 -15 9 -15 5 0 6 -5
2 -11 -4 -8 0 -8 15 0 15 8 21 9 21 1 0 -6 5 -8 10 -5 6 4 8 10 6 14 -3 4 18
9 45 10 33 1 49 -2 44 -8 -4 -7 0 -8 10 -4 13 5 14 7 3 14 -20 13 -122 11
-137 -3 -17 -18 -4 18 21 54 20 30 22 38 8 38 -5 0 -9 -3 -9 -7 4 -27 -5 -23
-16 7 l-13 35 1 -32z"/>
<path d="M290 129 c0 -16 -4 -19 -20 -14 -11 3 -20 2 -20 -2 0 -12 22 -33 35
-33 5 0 3 5 -5 10 -10 6 -11 10 -2 10 6 0 15 -1 18 -2 9 -5 26 31 19 42 -11
17 -25 11 -25 -11z"/>
<path d="M114 99 c-14 -16 -13 -17 23 -17 28 0 33 2 18 8 -11 4 -24 5 -29 2
-5 -3 -6 -1 -3 5 7 11 77 4 77 -8 0 -5 5 -9 10 -9 7 0 6 6 -1 18 -14 23 -74
24 -95 1z"/>
<path d="M291 71 c-8 -5 -9 -11 -3 -15 5 -3 12 1 16 9 6 17 6 18 -13 6z"/>
<path d="M305 41 c-3 -5 -31 -8 -63 -6 -31 3 -48 2 -37 -1 11 -4 25 -14 32
-23 12 -15 13 -15 7 1 -6 19 9 19 43 0 20 -11 22 -10 16 4 -4 11 -2 15 4 11 5
-3 10 0 10 8 0 17 -3 19 -12 6z"/>
</g>
</svg>
